<?xml version="1.0" encoding="UTF-8" standalone="no"?>
<!-- Created with Inkscape (http://www.inkscape.org/) -->

<svg
   xmlns:dc="http://purl.org/dc/elements/1.1/"
   xmlns:cc="http://creativecommons.org/ns#"
   xmlns:rdf="http://www.w3.org/1999/02/22-rdf-syntax-ns#"
   xmlns:svg="http://www.w3.org/2000/svg"
   xmlns="http://www.w3.org/2000/svg"
   xmlns:sodipodi="http://sodipodi.sourceforge.net/DTD/sodipodi-0.dtd"
   xmlns:inkscape="http://www.inkscape.org/namespaces/inkscape"
   width="200"
   height="200"
   id="svg2"
   version="1.1"
   inkscape:version="0.48.5 r10040"
   sodipodi:docname="New document 1">
  <defs
     id="defs4" />
  <sodipodi:namedview
     id="base"
     pagecolor="#ffffff"
     bordercolor="#666666"
     borderopacity="1.0"
     inkscape:pageopacity="0.0"
     inkscape:pageshadow="2"
     inkscape:zoom="0.98994949"
     inkscape:cx="84.497287"
     inkscape:cy="-27.600641"
     inkscape:document-units="px"
     inkscape:current-layer="layer1"
     showgrid="false"
     inkscape:window-width="1366"
     inkscape:window-height="716"
     inkscape:window-x="0"
     inkscape:window-y="26"
     inkscape:window-maximized="1" />
  <metadata
     id="metadata7">
    <rdf:RDF>
      <cc:Work
         rdf:about="">
        <dc:format>image/svg+xml</dc:format>
        <dc:type
           rdf:resource="http://purl.org/dc/dcmitype/StillImage" />
        <dc:title></dc:title>
      </cc:Work>
    </rdf:RDF>
  </metadata>
  <g
     inkscape:label="Layer 1"
     inkscape:groupmode="layer"
     id="layer1"
     transform="translate(0,-852.36218)">
    <path
       style="color:#000000;fill:#ffc527;fill-opacity:1;fill-rule:nonzero;stroke:none;stroke-width:5;marker:none;visibility:visible;display:inline;overflow:visible;enable-background:accumulate"
       d="m 99.983037,852.36218 c -55.229819,0 -99.9830345,44.78714 -99.9830345,100.01696 0,55.22986 44.7532155,99.98306 99.9830345,99.98306 C 155.21285,1052.3622 200,1007.609 200,952.37914 200,897.14932 155.21285,852.36218 99.983038,852.36218 z"
       id="path3017"
       inkscape:connector-curvature="0" />
    <path
       style="color:#000000;fill:#000000;fill-opacity:1;fill-rule:nonzero;stroke:none;stroke-width:5;marker:none;visibility:visible;display:inline;overflow:visible;enable-background:accumulate"
       d="m 99.983037,852.36219 c -55.229819,0 -99.9830345,44.78712 -99.9830345,100.01694 0,55.22987 44.7532155,99.98307 99.9830345,99.98307 C 155.21285,1052.3622 200,1007.609 200,952.37913 200,897.14931 155.21285,852.36219 99.983038,852.36219 z m 0,19.39967 c 44.526363,0 80.617273,36.0909 80.617273,80.61727 0,37.83486 -26.0678,69.55647 -61.21757,78.24317 l 0,-59.96269 35.30608,0 0,-38.76548 -109.377643,0 0,38.76548 35.30608,0 0,59.96269 c -35.16593,-8.6753 -61.25148,-40.39684 -61.25148,-78.24317 0,-44.52637 36.0909,-80.61727 80.61726,-80.61727 z m 0,11.15822 c -12.412309,0 -22.45209,10.0737 -22.45209,22.48601 0,12.41231 10.039781,22.48601 22.45209,22.48601 12.412313,0 22.486013,-10.0737 22.486013,-22.48601 0,-12.41231 -10.0737,-22.48601 -22.486013,-22.48601 z"
       id="path3004"
       inkscape:connector-curvature="0" />
  </g>
</svg>
